<svg xmlns="http://www.w3.org/2000/svg" width="99" height="66" viewBox="0 0 99 66">
    <g data-name="그룹 98" style="opacity:.24">
        <path data-name="패스 2843" d="M177.438 79.248a67.048 67.048 0 0 0-13.938-4.183 1.065 1.065 0 0 0-1.132.579 54.702 54.702 0 0 0-1.522 3.254 1.044 1.044 0 0 1-1.115.629 61 61 0 0 0-17.686 0 1.054 1.054 0 0 1-1.119-.639q-.74-1.7-1.59-3.279a1.06 1.06 0 0 0-1.12-.548 64.382 64.382 0 0 0-13.97 4.239 9.222 9.222 0 0 0-4.212 3.7 75 75 0 0 0-10.984 46.632 1.132 1.132 0 0 0 .441.809A67.841 67.841 0 0 0 129.7 141a1.061 1.061 0 0 0 1.19-.411 51.567 51.567 0 0 0 3.57-5.892 1.116 1.116 0 0 0-.569-1.534 40.4 40.4 0 0 1-4.647-2.268 1.13 1.13 0 0 1-.154-1.843 1.015 1.015 0 0 1 1.078-.124 48.419 48.419 0 0 0 41.526 0 1.015 1.015 0 0 1 1.078.124 1.129 1.129 0 0 1-.158 1.846 41.538 41.538 0 0 1-4.714 2.27 1.115 1.115 0 0 0-.569 1.534 51.593 51.593 0 0 0 3.565 5.884 1.064 1.064 0 0 0 1.2.408 68.594 68.594 0 0 0 20.2-10.547 1.14 1.14 0 0 0 .437-.81 75.262 75.262 0 0 0-11-46.649 9.258 9.258 0 0 0-4.295-3.74zm-40.6 40.824c-4.191 0-7.545-3.932-7.545-8.729s3.353-8.808 7.545-8.808c4.268 0 7.621 3.932 7.621 8.808-.081 4.797-3.359 8.729-7.625 8.729zm28.045 0c-4.191 0-7.545-3.932-7.545-8.729s3.353-8.808 7.545-8.808c4.268 0 7.621 3.932 7.545 8.808s-3.358 8.729-7.549 8.729z" transform="translate(-94.027 -75.046)" style="fill:#384769"/>
        <path data-name="패스 2839" d="M177.438 79.248a67.049 67.049 0 0 0-13.938-4.183 1.065 1.065 0 0 0-1.132.579 54.702 54.702 0 0 0-1.522 3.254 1.044 1.044 0 0 1-1.115.629 61 61 0 0 0-17.686 0 1.054 1.054 0 0 1-1.119-.639q-.74-1.7-1.59-3.279a1.06 1.06 0 0 0-1.12-.548 64.382 64.382 0 0 0-13.97 4.239 9.222 9.222 0 0 0-4.212 3.7 75 75 0 0 0-10.984 46.632 1.132 1.132 0 0 0 .441.809A67.841 67.841 0 0 0 129.7 141a1.061 1.061 0 0 0 1.19-.411 51.567 51.567 0 0 0 3.57-5.892 1.116 1.116 0 0 0-.569-1.534 40.4 40.4 0 0 1-4.647-2.268 1.13 1.13 0 0 1-.154-1.843 1.015 1.015 0 0 1 1.078-.124 48.419 48.419 0 0 0 41.526 0 1.015 1.015 0 0 1 1.078.124 1.129 1.129 0 0 1-.158 1.846 41.536 41.536 0 0 1-4.714 2.27 1.115 1.115 0 0 0-.569 1.534 51.593 51.593 0 0 0 3.565 5.884 1.064 1.064 0 0 0 1.2.408 68.6 68.6 0 0 0 20.2-10.547 1.14 1.14 0 0 0 .437-.81 75.262 75.262 0 0 0-11-46.649 9.258 9.258 0 0 0-4.295-3.74zm-40.6 40.824c-4.191 0-7.545-3.932-7.545-8.729s3.353-8.808 7.545-8.808c4.268 0 7.621 3.932 7.621 8.808-.081 4.797-3.359 8.729-7.625 8.729zm28.045 0c-4.191 0-7.545-3.932-7.545-8.729s3.353-8.808 7.545-8.808c4.268 0 7.621 3.932 7.545 8.808s-3.358 8.729-7.55 8.729z" transform="translate(-108.752 -75.046)" style="fill:#fff"/>
    </g>
</svg>
