<svg xmlns="http://www.w3.org/2000/svg" width="99" height="90" viewBox="0 0 99 90">
    <defs>
        <filter id="t0vuok0naa" x="8.453" y="0" width="90.547" height="90" filterUnits="userSpaceOnUse">
            <feOffset dx="3" dy="3"/>
            <feGaussianBlur stdDeviation="3" result="blur"/>
            <feFlood flood-opacity=".161"/>
            <feComposite operator="in" in2="blur"/>
            <feComposite in="SourceGraphic"/>
        </filter>
        <filter id="zq0eznn1jb" x="0" y="0" width="90.547" height="90" filterUnits="userSpaceOnUse">
            <feOffset dx="3" dy="3"/>
            <feGaussianBlur stdDeviation="3" result="blur-2"/>
            <feFlood flood-opacity=".161"/>
            <feComposite operator="in" in2="blur-2"/>
            <feComposite in="SourceGraphic"/>
        </filter>
    </defs>
    <g data-name="그룹 99">
        <g style="filter:url(#t0vuok0naa)">
            <path data-name="패스 2844" d="M3231.961 1811.036c-.131 1.14-.244 2.282-.4 3.42a35 35 0 0 1-4.992 13.947 36.836 36.836 0 0 1-11.365 11.773 36.329 36.329 0 0 1-7.836 3.8c-1.589.553-2.651-.249-2.656-1.979-.01-3.193.007-6.386-.007-9.578a10.448 10.448 0 0 0-1.259-5.606c-.308-.5-.7-.948-1.058-1.433 1.422-.27 2.844-.46 4.224-.817 3.7-.958 7.011-2.622 9.263-5.911a16.4 16.4 0 0 0 2.717-8.079 33.089 33.089 0 0 0-.046-6.236 12.149 12.149 0 0 0-3.064-6.606.9.9 0 0 1-.228-1.014 12.707 12.707 0 0 0-.443-8.92.817.817 0 0 0-.561-.4 6.069 6.069 0 0 0-3.563.693c-1.812.859-3.578 1.823-5.336 2.792a1.644 1.644 0 0 1-1.325.195 32.951 32.951 0 0 0-16.671 0 1.622 1.622 0 0 1-1.445-.261 23.175 23.175 0 0 0-7.186-3.3c-1.854-.479-2.152-.268-2.671 1.581a12.7 12.7 0 0 0 .062 7.782.83.83 0 0 1-.136.682c-3.068 3.535-3.756 7.719-3.328 12.24a21.373 21.373 0 0 0 2 7.446 13.023 13.023 0 0 0 7.736 6.566c2.1.749 4.315 1.14 6.356 1.66-.44.811-.988 1.772-1.483 2.76a3.107 3.107 0 0 0-.329 1.167 1.234 1.234 0 0 1-1.031 1.237c-2.316.654-4.617 1.082-6.843-.3a8.008 8.008 0 0 1-2.7-2.9 7.75 7.75 0 0 0-4.489-3.74 6.746 6.746 0 0 0-2.286-.139c-.554.03-.74.432-.361.906a4.461 4.461 0 0 0 1.086 1.111 9.9 9.9 0 0 1 3.833 4.852 9.019 9.019 0 0 0 1.942 3.218 8.12 8.12 0 0 0 5.331 2.014c1.709.079 3.425.017 5.236.017v1.455c.016 1.608.05 3.216.052 4.825 0 1.76-1.138 2.569-2.788 1.994a34.975 34.975 0 0 1-11.749-6.77 37.938 37.938 0 0 1-9.287-12.306 36.7 36.7 0 0 1-3.428-17.67 36.795 36.795 0 0 1 26.174-33.607 32.917 32.917 0 0 1 7.941-1.337c.326-.016.651-.076.976-.115h2.267c.278.038.555.1.834.11a33.221 33.221 0 0 1 10.032 1.968 36.108 36.108 0 0 1 17.942 13.991 35.539 35.539 0 0 1 5.786 14.46c.213 1.342.369 2.693.552 4.04z" transform="translate(-3144.96 -1766.15)" style="fill:#384769"/>
        </g>
        <g style="filter:url(#zq0eznn1jb)">
            <path data-name="패스 2842" d="M3231.961 1811.036c-.131 1.14-.244 2.282-.4 3.42a35 35 0 0 1-4.992 13.947 36.836 36.836 0 0 1-11.365 11.773 36.329 36.329 0 0 1-7.836 3.8c-1.589.553-2.651-.249-2.656-1.979-.01-3.193.007-6.386-.007-9.578a10.448 10.448 0 0 0-1.259-5.606c-.308-.5-.7-.948-1.058-1.433 1.422-.27 2.844-.46 4.224-.817 3.7-.958 7.011-2.622 9.263-5.911a16.4 16.4 0 0 0 2.717-8.079 33.089 33.089 0 0 0-.046-6.236 12.149 12.149 0 0 0-3.064-6.606.9.9 0 0 1-.228-1.014 12.707 12.707 0 0 0-.443-8.92.817.817 0 0 0-.561-.4 6.069 6.069 0 0 0-3.563.693c-1.812.859-3.578 1.823-5.336 2.792a1.644 1.644 0 0 1-1.325.195 32.951 32.951 0 0 0-16.671 0 1.622 1.622 0 0 1-1.445-.261 23.175 23.175 0 0 0-7.186-3.3c-1.854-.479-2.152-.268-2.671 1.581a12.7 12.7 0 0 0 .062 7.782.83.83 0 0 1-.136.682c-3.068 3.535-3.756 7.719-3.328 12.24a21.373 21.373 0 0 0 2 7.446 13.023 13.023 0 0 0 7.736 6.566c2.1.749 4.315 1.14 6.356 1.66-.44.811-.988 1.772-1.483 2.76a3.107 3.107 0 0 0-.329 1.167 1.234 1.234 0 0 1-1.031 1.237c-2.316.654-4.617 1.082-6.843-.3a8.008 8.008 0 0 1-2.7-2.9 7.75 7.75 0 0 0-4.489-3.74 6.746 6.746 0 0 0-2.286-.139c-.554.03-.74.432-.361.906a4.461 4.461 0 0 0 1.086 1.111 9.9 9.9 0 0 1 3.833 4.852 9.019 9.019 0 0 0 1.942 3.218 8.12 8.12 0 0 0 5.331 2.014c1.709.079 3.425.017 5.236.017v1.455c.016 1.608.05 3.216.052 4.825 0 1.76-1.138 2.569-2.788 1.994a34.975 34.975 0 0 1-11.749-6.77 37.938 37.938 0 0 1-9.287-12.306 36.7 36.7 0 0 1-3.428-17.67 36.795 36.795 0 0 1 26.174-33.607 32.917 32.917 0 0 1 7.941-1.337c.326-.016.651-.076.976-.115h2.267c.278.038.555.1.834.11a33.221 33.221 0 0 1 10.032 1.968 36.108 36.108 0 0 1 17.942 13.991 35.539 35.539 0 0 1 5.786 14.46c.213 1.342.369 2.693.552 4.04z" transform="translate(-3153.41 -1766.15)" style="fill:#fff"/>
        </g>
    </g>
</svg>
