<svg xmlns="http://www.w3.org/2000/svg" width="95" height="64" viewBox="0 0 95 64">
    <g data-name="그룹 97" style="opacity:.244">
        <path d="m35.737 16.217.16 2.637-2.659-.323A43.212 43.212 0 0 1 7.924 6.047l-3.51-3.5-.9 2.583a15.557 15.557 0 0 0 3.3 15.929c2.127 2.26 1.649 2.583-2.021 1.238a6.259 6.259 0 0 0-2.5-.592c-.372.377.9 5.274 1.914 7.211a17.19 17.19 0 0 0 7.286 6.888l2.606 1.238-3.084.054c-2.978 0-3.084.054-2.765 1.184 1.064 3.5 5.265 7.211 9.945 8.825l3.3 1.13-2.872 1.722A29.888 29.888 0 0 1 4.361 53.94 15.712 15.712 0 0 0 0 54.371c0 .538 6.488 3.552 10.264 4.736a44.828 44.828 0 0 0 34.886-3.983c7.179-4.251 14.359-12.7 17.709-20.88 1.808-4.359 3.616-12.323 3.616-16.144 0-2.475.16-2.8 3.138-5.758A35.115 35.115 0 0 0 73.335 8.2c.532-1.022.479-1.022-2.234-.108-4.52 1.614-5.158 1.4-2.925-1.022 1.649-1.722 3.616-4.843 3.616-5.758 0-.161-.8.108-1.7.592a29.628 29.628 0 0 1-4.68 1.83l-2.872.915-2.606-1.777A21.627 21.627 0 0 0 55.413.5a18.127 18.127 0 0 0-9.306.215 15.407 15.407 0 0 0-10.37 15.502z" transform="translate(21.4 3.036)" style="fill:#86b0ff;opacity:.298"/>
        <path data-name="Shape" d="m35.737 16.217.16 2.637-2.659-.323A43.212 43.212 0 0 1 7.924 6.047l-3.51-3.5-.9 2.583a15.557 15.557 0 0 0 3.3 15.929c2.127 2.26 1.649 2.583-2.021 1.238a6.259 6.259 0 0 0-2.5-.592c-.372.377.9 5.274 1.914 7.211a17.19 17.19 0 0 0 7.286 6.888l2.606 1.238-3.084.054c-2.978 0-3.084.054-2.765 1.184 1.064 3.5 5.265 7.211 9.945 8.825l3.3 1.13-2.872 1.722A29.888 29.888 0 0 1 4.361 53.94 15.712 15.712 0 0 0 0 54.371c0 .538 6.488 3.552 10.264 4.736a44.828 44.828 0 0 0 34.886-3.983c7.179-4.251 14.359-12.7 17.709-20.88 1.808-4.359 3.616-12.323 3.616-16.144 0-2.475.16-2.8 3.138-5.758A35.115 35.115 0 0 0 73.335 8.2c.532-1.022.479-1.022-2.234-.108-4.52 1.614-5.158 1.4-2.925-1.022 1.649-1.722 3.616-4.843 3.616-5.758 0-.161-.8.108-1.7.592a29.628 29.628 0 0 1-4.68 1.83l-2.872.915-2.606-1.777A21.627 21.627 0 0 0 55.413.5a18.127 18.127 0 0 0-9.306.215 15.407 15.407 0 0 0-10.37 15.502z" style="fill:#fff"/>
    </g>
</svg>
