<svg xmlns="http://www.w3.org/2000/svg" width="1112" height="468" viewBox="0 0 1112 468">
    <g data-name="그룹 3877">
        <g data-name="사각형 37" style="stroke-width:2px;fill:rgba(22,27,40,.36);stroke:#2b334d">
            <rect width="1112" height="436" rx="14" style="stroke:none"/>
            <rect x="1" y="1" width="1110" height="434" rx="13" style="fill:none"/>
        </g>
        <text data-name="비용 효율성 | 서비스 추가기능 지원에 따라 더욱 증가" transform="translate(22 33)" style="font-size:14px;font-family:GmarketSansMedium,Gmarket Sans;fill:#86b0ff"><tspan x="0" y="0">비용 효율성</tspan><tspan y="0" xml:space="preserve" style="fill:#fff"> | 서비스 추가기능 지원에 따라 더욱 증가</tspan></text>
        <text data-name="단위 : KRW" transform="translate(1022 412)" style="fill:#fff;font-size:14px;font-family:GmarketSansMedium,Gmarket Sans"><tspan x="0" y="0">단위 : KRW</tspan></text>
        <g data-name="그룹 13">
            <path data-name="패스 2836" d="M956 3496v434" transform="translate(-400 -3495)" style="stroke:#383e52;fill:none;stroke-width:2px"/>
            <path data-name="패스 2837" d="M0 0v1112" transform="rotate(90 447 665)" style="stroke:#383e52;fill:none;stroke-width:2px"/>
        </g>
        <text data-name="1year" transform="translate(538 463)" style="fill:#fff;font-size:14px;font-family:GmarketSansMedium,Gmarket Sans"><tspan x="0" y="0">1year</tspan></text>
        <text data-name="2year" transform="translate(1054 463)" style="fill:#fff;font-size:14px;font-family:GmarketSansMedium,Gmarket Sans"><tspan x="0" y="0">2year</tspan></text>
        <text data-name="0" transform="translate(35 463)" style="fill:#fff;font-size:14px;font-family:GmarketSansMedium,Gmarket Sans"><tspan x="0" y="0">0</tspan></text>
        <text data-name="125USD" transform="translate(11 208)" style="fill:#fff;font-size:14px;font-family:GmarketSansMedium,Gmarket Sans"><tspan x="0" y="0">125USD</tspan></text>
        <g data-name="그룹 7" transform="translate(-392 -3497)">
            <circle data-name="타원 1" cx="11" cy="11" r="11" transform="translate(454 3890)" style="fill:#00ffb1"/>
            <circle data-name="타원 2" cx="11" cy="11" r="11" transform="translate(1420 3516)" style="fill:#00ffb1"/>
            <path data-name="패스 2838" d="m465 3901 964.091-373.445" style="stroke:#07ffd9;fill:none"/>
        </g>
        <path data-name="합치기 1" d="M47.572 41H8a8 8 0 0 1-8-8V8a8 8 0 0 1 8-8h93a8 8 0 0 1 8 8v25a8 8 0 0 1-8 8H62.428L55 54z" transform="translate(501 149)" style="fill:#00ffb1"/>
        <text data-name="+169,000" transform="translate(509 176)" style="fill:#07090e;font-size:20px;font-family:GmarketSansBold,Gmarket Sans"><tspan x="0" y="0">+169,000</tspan></text>
    </g>
</svg>
