<svg xmlns="http://www.w3.org/2000/svg" width="175.19" height="117.016" viewBox="0 0 175.19 117.016">
    <g data-name="그룹 45">
        <path data-name="패스 2843" d="M234.418 82.5a125.615 125.615 0 0 0-25.494-7.416 1.965 1.965 0 0 0-2.072 1.026 95.637 95.637 0 0 0-2.784 5.77 1.921 1.921 0 0 1-2.04 1.115 115.129 115.129 0 0 0-32.358 0 1.94 1.94 0 0 1-2.047-1.132q-1.353-3.008-2.909-5.813a1.959 1.959 0 0 0-2.05-.972 120.6 120.6 0 0 0-25.566 7.5 16.719 16.719 0 0 0-7.706 6.567c-17.549 28.12-22.43 55.524-20.1 82.677a1.991 1.991 0 0 0 .807 1.435 125.551 125.551 0 0 0 36.967 18.716 1.974 1.974 0 0 0 2.177-.728 90.923 90.923 0 0 0 6.532-10.446 1.955 1.955 0 0 0-1.04-2.72 74.928 74.928 0 0 1-8.5-4.021 1.969 1.969 0 0 1-.282-3.268l.007-.006a1.9 1.9 0 0 1 1.973-.22 91.146 91.146 0 0 0 75.976 0 1.9 1.9 0 0 1 1.973.22 1.968 1.968 0 0 1-.289 3.272 77.078 77.078 0 0 1-8.625 4.025 1.953 1.953 0 0 0-1.042 2.72 90.974 90.974 0 0 0 6.523 10.432 1.98 1.98 0 0 0 2.195.724 126.948 126.948 0 0 0 36.965-18.7 2 2 0 0 0 .8-1.436c2.666-31.141-4.837-58.408-20.131-82.706a16.794 16.794 0 0 0-7.86-6.615zm-74.289 72.38c-7.669 0-13.8-6.972-13.8-15.477s6.135-15.616 13.8-15.616c7.808 0 13.943 6.972 13.943 15.616-.139 8.497-6.134 15.473-13.942 15.473zm51.311 0c-7.669 0-13.8-6.972-13.8-15.477s6.135-15.616 13.8-15.616c7.808 0 13.943 6.972 13.8 15.616s-6.131 15.473-13.8 15.473z" transform="translate(-87.752 -75.046)" style="fill:#384769"/>
        <path data-name="패스 2839" d="M234.418 82.5a125.615 125.615 0 0 0-25.494-7.416 1.965 1.965 0 0 0-2.072 1.026 95.637 95.637 0 0 0-2.784 5.77 1.921 1.921 0 0 1-2.04 1.115 115.129 115.129 0 0 0-32.358 0 1.94 1.94 0 0 1-2.047-1.132q-1.353-3.008-2.909-5.813a1.959 1.959 0 0 0-2.05-.972 120.6 120.6 0 0 0-25.566 7.5 16.719 16.719 0 0 0-7.706 6.567c-17.549 28.12-22.43 55.524-20.1 82.677a1.991 1.991 0 0 0 .807 1.435 125.551 125.551 0 0 0 36.967 18.716 1.974 1.974 0 0 0 2.177-.728 90.923 90.923 0 0 0 6.532-10.446 1.955 1.955 0 0 0-1.04-2.72 74.928 74.928 0 0 1-8.5-4.021 1.969 1.969 0 0 1-.282-3.268l.007-.006a1.9 1.9 0 0 1 1.973-.22 91.146 91.146 0 0 0 75.976 0 1.9 1.9 0 0 1 1.973.22 1.968 1.968 0 0 1-.289 3.272 77.078 77.078 0 0 1-8.625 4.025 1.953 1.953 0 0 0-1.042 2.72 90.974 90.974 0 0 0 6.523 10.432 1.98 1.98 0 0 0 2.195.724 126.948 126.948 0 0 0 36.965-18.7 2 2 0 0 0 .8-1.436c2.666-31.141-4.837-58.408-20.131-82.706a16.794 16.794 0 0 0-7.86-6.615zm-74.289 72.38c-7.669 0-13.8-6.972-13.8-15.477s6.135-15.616 13.8-15.616c7.808 0 13.943 6.972 13.943 15.616-.139 8.497-6.134 15.473-13.942 15.473zm51.311 0c-7.669 0-13.8-6.972-13.8-15.477s6.135-15.616 13.8-15.616c7.808 0 13.943 6.972 13.8 15.616s-6.131 15.473-13.8 15.473z" transform="translate(-108.752 -75.046)" style="fill:#fff"/>
    </g>
</svg>
