<svg xmlns="http://www.w3.org/2000/svg" width="145.777" height="120.469" viewBox="0 0 145.777 120.469">
    <path d="m70.783 32.047.316 5.211-5.267-.638c-19.17-2.446-35.918-10.74-50.138-24.671L8.743 5.036l-1.791 5.1c-3.792 11.383-1.369 23.399 6.53 31.481 4.213 4.466 3.265 5.1-4 2.446-2.528-.851-4.74-1.489-4.951-1.17-.737.744 1.791 10.421 3.792 14.249 2.739 5.317 8.321 10.528 14.43 13.611l5.16 2.447-6.109.106c-5.9 0-6.109.106-5.477 2.339 2.107 6.912 10.428 14.249 19.7 17.44l6.531 2.233-5.688 3.4a59.3 59.3 0 0 1-28.233 7.872c-4.737.11-8.637.532-8.637.851 0 1.063 12.85 7.018 20.329 9.358 22.436 6.912 49.085 3.935 69.1-7.869 14.22-8.4 28.44-25.1 35.075-41.259 3.581-8.613 7.163-24.352 7.163-31.9 0-4.892.316-5.53 6.215-11.378a69.441 69.441 0 0 0 7.373-8.188c1.053-2.02.948-2.02-4.424-.213-8.953 3.19-10.217 2.765-5.793-2.02 3.265-3.4 7.163-9.57 7.163-11.378 0-.319-1.58.213-3.371 1.17a58.764 58.764 0 0 1-9.269 3.616l-5.691 1.804-5.161-3.509A42.873 42.873 0 0 0 109.756 1c-5.372-1.493-13.588-1.28-18.434.421-13.166 4.785-21.487 17.12-20.539 30.626z" style="fill:#fff"/>
</svg>
